<svg width="700" height="210" viewBox="0 0 700 210" fill="none" xmlns="http://www.w3.org/2000/svg">
   <g clip-path="url(#clip0_1944_56)">
   <path d="M239.077 80.9855C239.077 94.1957 236.01 104.488 229.887 111.857C223.759 119.232 215.143 122.914 204.041 122.914C194.277 122.914 186.758 120.237 181.497 114.873C176.23 109.514 173.6 101.473 173.6 90.7496V60.5957H137.415V93.6214C137.415 105.304 139.713 115.642 144.308 124.637C148.902 133.637 155.364 140.673 163.692 145.745C172.02 150.822 181.733 153.355 192.841 153.355C201.456 153.355 208.538 152.298 214.092 150.196C219.641 148.094 224.046 145.411 227.302 142.155C230.559 138.898 232.948 135.647 234.482 132.391H239.651V168.288C239.651 174.032 236.969 176.904 231.61 176.904H154.072V208.493H243.672C253.241 208.493 260.902 205.57 266.646 199.734C272.39 193.893 275.261 186.093 275.261 176.329V60.5957H239.077V80.9855Z" fill="#8E63E2"/>
   <path d="M73.6615 0.000976562H37.4769V60.5959H0V90.4626H37.4769V118.893C37.4769 128.658 40.3947 136.463 46.2359 142.299C52.0714 148.14 59.6816 151.058 69.0667 151.058H109.272V121.191H81.7026C76.338 121.191 73.6615 118.319 73.6615 112.575V90.4626H110.851V60.5959H73.6615V0.000976562Z" fill="#8E63E2"/>
   <path d="M494.667 0.000976562H458.482V60.5959H374.195V38.4831C374.195 32.7395 376.871 29.8677 382.236 29.8677H409.805V0.000976562H369.6C360.215 0.000976562 352.605 2.91872 346.769 8.75996C340.928 14.5955 338.01 22.401 338.01 32.1651V60.5959H300.533V90.4626H338.01V151.058H374.195V90.4626H458.482V112.575C458.482 118.319 455.805 121.191 450.441 121.191H422.872V151.058H463.077C472.462 151.058 480.072 148.14 485.908 142.299C491.749 136.463 494.667 128.658 494.667 118.893V90.4626H532.143V60.5959H494.667V0.000976562Z" fill="#8E63E2"/>
   <path d="M700 90.4624V78.1137C700 70.3656 699.477 66.121 698.449 60.5957H561.097C560.08 66.1038 559.563 71.9336 559.563 78.1137V81.5598C559.563 96.4932 562.579 109.468 568.61 120.473C574.64 131.483 583.061 140.001 593.881 146.032C604.697 152.062 617.189 155.078 631.358 155.078C644.373 155.078 655.097 153.016 663.522 148.903C671.943 144.791 678.691 139.811 683.769 133.97C688.84 128.135 692.717 122.724 695.399 117.744L665.82 102.237C663.327 107.601 659.691 112.483 654.907 116.883C650.117 121.288 642.65 123.488 632.507 123.488C622.364 123.488 614.128 120.427 607.235 114.298C600.343 108.176 596.702 100.227 596.322 90.4624H691.821H699.994H700Z" fill="#8E63E2"/>
   <path d="M353.523 197.311C352.145 196.265 350.14 195.639 347.51 195.427C345.057 195.243 343.375 194.87 342.45 194.295C341.525 193.721 341.066 192.888 341.066 191.797C341.066 191.251 341.203 190.774 341.473 190.367C341.743 189.959 342.111 189.62 342.565 189.344C343.018 189.069 343.541 188.867 344.133 188.73C344.724 188.592 345.333 188.523 345.971 188.523C347.602 188.523 348.929 188.931 349.939 189.746C350.95 190.562 351.536 191.699 351.686 193.146L355.045 192.331C354.925 191.487 354.661 190.637 354.253 189.792C353.845 188.948 353.259 188.195 352.507 187.546C351.749 186.897 350.812 186.369 349.692 185.961C348.572 185.553 347.274 185.347 345.793 185.347C344.736 185.347 343.719 185.485 342.754 185.754C341.784 186.024 340.916 186.438 340.147 186.978C339.377 187.524 338.762 188.195 338.309 189C337.855 189.804 337.625 190.734 337.625 191.791V192.061C337.625 194.025 338.32 195.524 339.71 196.552C341.1 197.581 343.099 198.184 345.701 198.367C347.941 198.517 349.56 198.867 350.554 199.413C351.548 199.958 352.053 200.866 352.053 202.135C352.053 203.313 351.548 204.232 350.531 204.881C349.514 205.53 348.176 205.857 346.516 205.857C344.552 205.857 342.978 205.334 341.795 204.289C340.618 203.244 339.951 201.86 339.796 200.136L336.436 200.952C336.494 201.951 336.741 202.939 337.16 203.921C337.585 204.904 338.211 205.782 339.044 206.552C339.877 207.322 340.916 207.942 342.174 208.413C343.432 208.884 344.937 209.114 346.689 209.114C347.987 209.114 349.193 208.953 350.296 208.637C351.398 208.321 352.34 207.856 353.11 207.253C353.88 206.65 354.488 205.914 354.925 205.053C355.361 204.191 355.585 203.215 355.585 202.129V201.86C355.585 199.861 354.896 198.344 353.523 197.299V197.311Z" fill="#8E63E2"/>
   <path d="M403.682 176.731H400.144V185.99H393.068V189.258H400.144V204.955C400.144 205.983 400.471 206.834 401.12 207.494C401.769 208.16 402.608 208.493 403.636 208.493H411.304V205.225H404.905C404.09 205.225 403.682 204.772 403.682 203.864V189.252H412.395V185.984H403.682V176.726V176.731Z" fill="#8E63E2"/>
   <path d="M467.345 197.696C467.345 200.148 466.73 202.107 465.507 203.571C464.283 205.036 462.595 205.771 460.446 205.771C458.448 205.771 456.966 205.226 456.001 204.14C455.03 203.049 454.548 201.326 454.548 198.965V185.99H451.01V199.419C451.01 201.021 451.217 202.428 451.624 203.64C452.032 204.852 452.606 205.863 453.347 206.679C454.088 207.494 454.979 208.109 456.024 208.517C457.069 208.924 458.206 209.131 459.447 209.131C461.262 209.131 462.761 208.706 463.939 207.862C465.116 207.018 466.069 205.863 466.799 204.416H467.345V208.499H470.883V185.996H467.345V197.701V197.696Z" fill="#8E63E2"/>
   <path d="M526.147 189.528H525.601C524.878 188.109 523.838 187.058 522.494 186.375C521.15 185.697 519.703 185.352 518.163 185.352C516.71 185.352 515.337 185.611 514.034 186.122C512.73 186.639 511.598 187.386 510.633 188.368C509.663 189.35 508.893 190.562 508.319 191.998C507.744 193.434 507.457 195.059 507.457 196.874V197.598C507.457 199.442 507.739 201.084 508.296 202.52C508.853 203.956 509.628 205.162 510.611 206.127C511.593 207.098 512.736 207.839 514.034 208.35C515.332 208.867 516.739 209.119 518.255 209.119C518.921 209.119 519.616 209.033 520.34 208.872C521.064 208.706 521.753 208.459 522.402 208.126C523.051 207.793 523.654 207.368 524.217 206.856C524.774 206.34 525.239 205.736 525.601 205.042H526.147V208.488H529.685V176.726H526.147V189.522V189.528ZM526.147 197.512C526.147 198.752 525.952 199.878 525.555 200.895C525.165 201.905 524.625 202.779 523.947 203.502C523.264 204.226 522.471 204.789 521.564 205.179C520.656 205.57 519.674 205.771 518.611 205.771C517.549 205.771 516.526 205.581 515.619 205.202C514.711 204.823 513.919 204.278 513.235 203.571C512.558 202.859 512.023 202.003 511.65 201.01C511.271 200.01 511.081 198.879 511.081 197.609V196.886C511.081 195.674 511.271 194.571 511.65 193.572C512.029 192.572 512.558 191.711 513.235 190.987C513.919 190.263 514.717 189.7 515.642 189.31C516.567 188.919 517.554 188.718 518.611 188.718C519.668 188.718 520.616 188.925 521.541 189.333C522.465 189.741 523.264 190.309 523.947 191.033C524.625 191.757 525.165 192.63 525.555 193.64C525.946 194.651 526.147 195.766 526.147 196.978V197.523V197.512Z" fill="#8E63E2"/>
   <path d="M578.144 185.99H567.529V189.253H574.606V205.226H566.714V208.494H585.495V205.226H578.144V185.99Z" fill="#8E63E2"/>
   <path d="M578.581 181.516C579.201 180.895 579.511 180.149 579.511 179.27C579.511 178.391 579.201 177.645 578.581 177.024C577.96 176.404 577.214 176.094 576.335 176.094C575.456 176.094 574.709 176.404 574.089 177.024C573.469 177.645 573.159 178.391 573.159 179.27C573.159 180.149 573.469 180.895 574.089 181.516C574.709 182.136 575.456 182.446 576.335 182.446C577.214 182.446 577.96 182.136 578.581 181.516Z" fill="#8E63E2"/>
   <path d="M641.421 188.391C640.375 187.392 639.175 186.639 637.814 186.122C636.452 185.611 635.028 185.353 633.546 185.353C632.064 185.353 630.64 185.611 629.279 186.122C627.917 186.639 626.717 187.392 625.672 188.391C624.626 189.39 623.793 190.608 623.173 192.044C622.553 193.48 622.243 195.122 622.243 196.966V197.512C622.243 199.39 622.553 201.044 623.173 202.48C623.793 203.916 624.615 205.128 625.649 206.11C626.677 207.092 627.871 207.844 629.233 208.356C630.594 208.873 632.03 209.125 633.54 209.125C635.051 209.125 636.452 208.867 637.831 208.356C639.209 207.844 640.41 207.092 641.438 206.11C642.466 205.128 643.293 203.916 643.913 202.48C644.534 201.044 644.844 199.39 644.844 197.512V196.966C644.844 195.122 644.534 193.48 643.913 192.044C643.293 190.608 642.46 189.39 641.421 188.391ZM641.214 197.512C641.214 198.781 641.018 199.924 640.622 200.935C640.226 201.946 639.686 202.819 638.991 203.543C638.296 204.266 637.486 204.823 636.561 205.197C635.637 205.576 634.632 205.765 633.546 205.765C632.461 205.765 631.45 205.576 630.531 205.197C629.606 204.818 628.796 204.266 628.101 203.543C627.406 202.819 626.861 201.946 626.47 200.935C626.079 199.924 625.878 198.781 625.878 197.512V196.966C625.878 195.754 626.074 194.646 626.47 193.629C626.866 192.612 627.406 191.745 628.101 191.021C628.796 190.298 629.612 189.729 630.554 189.321C631.49 188.914 632.489 188.707 633.546 188.707C634.603 188.707 635.602 188.914 636.538 189.321C637.475 189.729 638.29 190.298 638.991 191.021C639.686 191.745 640.232 192.618 640.622 193.629C641.013 194.64 641.214 195.754 641.214 196.966V197.512Z" fill="#8E63E2"/>
   </g>
   <defs>
   <clipPath id="clip0_1944_56">
   <rect width="700" height="209.13" fill="white"/>
   </clipPath>
   </defs>
</svg>
