<svg width="1016" height="389" viewBox="0 0 1016 389" fill="none" xmlns="http://www.w3.org/2000/svg">
<g clip-path="url(#clip0_1958_122)">
<path d="M397.077 170.985C397.077 184.196 394.01 194.488 387.887 201.857C381.759 209.232 373.143 212.914 362.041 212.914C352.277 212.914 344.758 210.237 339.497 204.873C334.23 199.514 331.6 191.473 331.6 180.75V150.596H295.415V183.621C295.415 195.304 297.713 205.642 302.308 214.637C306.902 223.637 313.364 230.673 321.692 235.745C330.02 240.822 339.733 243.355 350.841 243.355C359.456 243.355 366.538 242.298 372.092 240.196C377.641 238.094 382.046 235.411 385.302 232.155C388.559 228.898 390.948 225.647 392.482 222.391H397.651V258.288C397.651 264.032 394.969 266.904 389.61 266.904H312.072V298.493H401.672C411.241 298.493 418.902 295.57 424.646 289.734C430.39 283.893 433.261 276.093 433.261 266.329V150.596H397.077V170.985Z" fill="#252525"/>
<path d="M231.662 90.001H195.477V150.596H158V180.463H195.477V208.893C195.477 218.658 198.395 226.463 204.236 232.299C210.071 238.14 217.682 241.058 227.067 241.058H267.272V211.191H239.703C234.338 211.191 231.662 208.319 231.662 202.575V180.463H268.851V150.596H231.662V90.001Z" fill="#252525"/>
<path d="M652.667 90.001H616.482V150.596H532.195V128.483C532.195 122.739 534.871 119.868 540.236 119.868H567.805V90.001H527.6C518.215 90.001 510.605 92.9187 504.769 98.76C498.928 104.595 496.01 112.401 496.01 122.165V150.596H458.533V180.463H496.01V241.058H532.195V180.463H616.482V202.575C616.482 208.319 613.805 211.191 608.441 211.191H580.872V241.058H621.077C630.462 241.058 638.072 238.14 643.908 232.299C649.749 226.463 652.667 218.658 652.667 208.893V180.463H690.143V150.596H652.667V90.001Z" fill="#252525"/>
<path d="M858 180.462V168.114C858 160.366 857.477 156.121 856.449 150.596H719.097C718.08 156.104 717.563 161.934 717.563 168.114V171.56C717.563 186.493 720.579 199.468 726.61 210.473C732.64 221.483 741.061 230.001 751.881 236.032C762.697 242.062 775.189 245.078 789.358 245.078C802.373 245.078 813.097 243.016 821.522 238.903C829.943 234.791 836.691 229.811 841.769 223.97C846.84 218.135 850.717 212.724 853.399 207.744L823.82 192.237C821.327 197.601 817.691 202.483 812.907 206.883C808.117 211.288 800.65 213.488 790.507 213.488C780.364 213.488 772.128 210.427 765.235 204.298C758.343 198.176 754.702 190.227 754.322 180.462H849.821H857.994H858Z" fill="#252525"/>
<path d="M511.523 287.311C510.145 286.265 508.14 285.639 505.51 285.427C503.057 285.243 501.375 284.87 500.45 284.295C499.525 283.721 499.066 282.888 499.066 281.797C499.066 281.251 499.203 280.774 499.473 280.367C499.743 279.959 500.111 279.62 500.565 279.344C501.018 279.069 501.541 278.867 502.133 278.73C502.724 278.592 503.333 278.523 503.971 278.523C505.602 278.523 506.929 278.931 507.939 279.746C508.95 280.562 509.536 281.699 509.686 283.146L513.045 282.331C512.925 281.487 512.661 280.637 512.253 279.792C511.845 278.948 511.259 278.195 510.507 277.546C509.749 276.897 508.812 276.369 507.692 275.961C506.572 275.553 505.274 275.347 503.793 275.347C502.736 275.347 501.719 275.485 500.754 275.754C499.784 276.024 498.916 276.438 498.147 276.978C497.377 277.524 496.762 278.195 496.309 279C495.855 279.804 495.625 280.734 495.625 281.791V282.061C495.625 284.025 496.32 285.524 497.71 286.552C499.1 287.581 501.099 288.184 503.701 288.367C505.941 288.517 507.56 288.867 508.554 289.413C509.548 289.958 510.053 290.866 510.053 292.135C510.053 293.313 509.548 294.232 508.531 294.881C507.514 295.53 506.176 295.857 504.516 295.857C502.552 295.857 500.978 295.334 499.795 294.289C498.618 293.244 497.951 291.86 497.796 290.136L494.436 290.952C494.494 291.951 494.741 292.939 495.16 293.921C495.585 294.904 496.211 295.782 497.044 296.552C497.877 297.322 498.916 297.942 500.174 298.413C501.432 298.884 502.937 299.114 504.689 299.114C505.987 299.114 507.193 298.953 508.296 298.637C509.398 298.321 510.34 297.856 511.11 297.253C511.88 296.65 512.488 295.914 512.925 295.053C513.361 294.191 513.585 293.215 513.585 292.129V291.86C513.585 289.861 512.896 288.344 511.523 287.299V287.311Z" fill="#252525"/>
<path d="M561.682 266.731H558.144V275.99H551.068V279.258H558.144V294.955C558.144 295.983 558.471 296.834 559.12 297.494C559.769 298.16 560.608 298.493 561.636 298.493H569.304V295.225H562.905C562.09 295.225 561.682 294.772 561.682 293.864V279.252H570.395V275.984H561.682V266.726V266.731Z" fill="#252525"/>
<path d="M625.345 287.696C625.345 290.148 624.73 292.107 623.507 293.571C622.283 295.036 620.595 295.771 618.446 295.771C616.448 295.771 614.966 295.226 614.001 294.14C613.03 293.049 612.548 291.326 612.548 288.965V275.99H609.01V289.419C609.01 291.021 609.217 292.428 609.624 293.64C610.032 294.852 610.606 295.863 611.347 296.679C612.088 297.494 612.979 298.109 614.024 298.517C615.069 298.924 616.206 299.131 617.447 299.131C619.262 299.131 620.761 298.706 621.939 297.862C623.116 297.018 624.069 295.863 624.799 294.416H625.345V298.499H628.883V275.996H625.345V287.701V287.696Z" fill="#252525"/>
<path d="M684.147 279.528H683.601C682.878 278.109 681.838 277.058 680.494 276.375C679.15 275.697 677.703 275.352 676.163 275.352C674.71 275.352 673.337 275.611 672.034 276.122C670.73 276.639 669.598 277.386 668.633 278.368C667.663 279.35 666.893 280.562 666.319 281.998C665.744 283.434 665.457 285.059 665.457 286.874V287.598C665.457 289.442 665.739 291.084 666.296 292.52C666.853 293.956 667.628 295.162 668.611 296.127C669.593 297.098 670.736 297.839 672.034 298.35C673.332 298.867 674.739 299.119 676.255 299.119C676.921 299.119 677.616 299.033 678.34 298.872C679.064 298.706 679.753 298.459 680.402 298.126C681.051 297.793 681.654 297.368 682.217 296.856C682.774 296.34 683.239 295.736 683.601 295.042H684.147V298.488H687.685V266.726H684.147V279.522V279.528ZM684.147 287.512C684.147 288.752 683.952 289.878 683.555 290.895C683.165 291.905 682.625 292.779 681.947 293.502C681.264 294.226 680.471 294.789 679.564 295.179C678.656 295.57 677.674 295.771 676.611 295.771C675.549 295.771 674.526 295.581 673.619 295.202C672.711 294.823 671.919 294.278 671.235 293.571C670.558 292.859 670.023 292.003 669.65 291.01C669.271 290.01 669.081 288.879 669.081 287.609V286.886C669.081 285.674 669.271 284.571 669.65 283.572C670.029 282.572 670.558 281.711 671.235 280.987C671.919 280.263 672.717 279.7 673.642 279.31C674.567 278.919 675.554 278.718 676.611 278.718C677.668 278.718 678.616 278.925 679.541 279.333C680.465 279.741 681.264 280.309 681.947 281.033C682.625 281.757 683.165 282.63 683.555 283.64C683.946 284.651 684.147 285.766 684.147 286.978V287.523V287.512Z" fill="#252525"/>
<path d="M736.144 275.99H725.529V279.253H732.606V295.226H724.714V298.494H743.495V295.226H736.144V275.99Z" fill="#252525"/>
<path d="M736.581 271.516C737.201 270.895 737.511 270.149 737.511 269.27C737.511 268.391 737.201 267.645 736.581 267.024C735.96 266.404 735.214 266.094 734.335 266.094C733.456 266.094 732.709 266.404 732.089 267.024C731.469 267.645 731.159 268.391 731.159 269.27C731.159 270.149 731.469 270.895 732.089 271.516C732.709 272.136 733.456 272.446 734.335 272.446C735.214 272.446 735.96 272.136 736.581 271.516Z" fill="#252525"/>
<path d="M799.421 278.391C798.375 277.392 797.175 276.639 795.814 276.122C794.452 275.611 793.028 275.353 791.546 275.353C790.064 275.353 788.64 275.611 787.279 276.122C785.917 276.639 784.717 277.392 783.672 278.391C782.626 279.39 781.793 280.608 781.173 282.044C780.553 283.48 780.243 285.122 780.243 286.966V287.512C780.243 289.39 780.553 291.044 781.173 292.48C781.793 293.916 782.615 295.128 783.649 296.11C784.677 297.092 785.871 297.844 787.233 298.356C788.594 298.873 790.03 299.125 791.54 299.125C793.051 299.125 794.452 298.867 795.831 298.356C797.209 297.844 798.41 297.092 799.438 296.11C800.466 295.128 801.293 293.916 801.913 292.48C802.534 291.044 802.844 289.39 802.844 287.512V286.966C802.844 285.122 802.534 283.48 801.913 282.044C801.293 280.608 800.46 279.39 799.421 278.391ZM799.214 287.512C799.214 288.781 799.018 289.924 798.622 290.935C798.226 291.946 797.686 292.819 796.991 293.543C796.296 294.266 795.486 294.823 794.561 295.197C793.637 295.576 792.632 295.765 791.546 295.765C790.461 295.765 789.45 295.576 788.531 295.197C787.606 294.818 786.796 294.266 786.101 293.543C785.406 292.819 784.861 291.946 784.47 290.935C784.079 289.924 783.878 288.781 783.878 287.512V286.966C783.878 285.754 784.074 284.646 784.47 283.629C784.866 282.612 785.406 281.745 786.101 281.021C786.796 280.298 787.612 279.729 788.554 279.321C789.49 278.914 790.489 278.707 791.546 278.707C792.603 278.707 793.602 278.914 794.538 279.321C795.475 279.729 796.29 280.298 796.991 281.021C797.686 281.745 798.232 282.618 798.622 283.629C799.013 284.64 799.214 285.754 799.214 286.966V287.512Z" fill="#252525"/>
</g>
<defs>
<clipPath id="clip0_1958_122">
<rect width="700" height="209.13" fill="white" transform="translate(158 90)"/>
</clipPath>
</defs>
</svg>
