<svg width="738" height="1117" viewBox="0 0 738 1117" fill="none" xmlns="http://www.w3.org/2000/svg">
<g style="mix-blend-mode:soft-light">
<path d="M520.484 645.5C549.047 645.5 577.33 651.126 603.718 662.056C630.106 672.987 654.083 689.007 674.28 709.204C694.476 729.401 710.497 753.378 721.428 779.766C732.358 806.154 737.984 834.437 737.984 862.999C737.984 891.562 732.358 919.845 721.428 946.233C710.497 972.621 694.476 996.598 674.28 1016.79C654.083 1036.99 630.106 1053.01 603.718 1063.94C577.33 1074.87 549.047 1080.5 520.484 1080.5L520.484 645.5Z" fill="url(#paint0_angular_1571_648)"/>
<path d="M520.484 210.499C549.047 210.499 577.33 216.125 603.718 227.055C630.106 237.986 654.083 254.007 674.28 274.203C694.476 294.4 710.497 318.377 721.428 344.765C732.358 371.153 737.984 399.436 737.984 427.999C737.984 456.561 732.358 484.844 721.428 511.232C710.497 537.62 694.476 561.597 674.28 581.794C654.083 601.991 630.106 618.012 603.718 628.942C577.33 639.872 549.047 645.498 520.484 645.498L520.484 210.499Z" fill="url(#paint1_angular_1571_648)"/>
<path d="M520.484 862.999C491.922 862.999 463.639 857.373 437.251 846.443C410.863 835.512 386.886 819.491 366.689 799.295C346.492 779.098 330.471 755.121 319.541 728.733C308.611 702.345 302.985 674.062 302.985 645.499C302.985 616.937 308.611 588.654 319.541 562.266C330.472 535.878 346.492 511.901 366.689 491.704C386.886 471.507 410.863 455.487 437.251 444.556C463.639 433.626 491.922 428 520.484 428L520.484 862.999Z" fill="url(#paint2_angular_1571_648)"/>
<path d="M520.484 427.999C491.922 427.999 463.639 422.373 437.251 411.443C410.863 400.513 386.886 384.492 366.689 364.295C346.492 344.098 330.471 320.122 319.541 293.733C308.611 267.345 302.985 239.062 302.985 210.5C302.985 181.937 308.611 153.655 319.541 127.266C330.472 100.878 346.492 76.9013 366.689 56.7046C386.886 36.5079 410.863 20.487 437.251 9.55663C463.639 -1.37373 491.922 -6.99952 520.484 -6.99951L520.484 427.999Z" fill="url(#paint3_angular_1571_648)"/>
<path d="M520.484 1298C491.922 1298 463.639 1292.37 437.251 1281.44C410.863 1270.51 386.886 1254.49 366.689 1234.3C346.492 1214.1 330.471 1190.12 319.541 1163.73C308.611 1137.35 302.985 1109.06 302.985 1080.5C302.985 1051.94 308.611 1023.65 319.541 997.267C330.472 970.878 346.492 946.901 366.689 926.705C386.886 906.508 410.863 890.487 437.251 879.557C463.639 868.627 491.922 863.001 520.484 863.001L520.484 1298Z" fill="url(#paint4_angular_1571_648)"/>
<path d="M85.5 1080.5C56.9375 1080.5 28.6548 1074.87 2.26655 1063.94C-24.1217 1053.01 -48.0986 1036.99 -68.2953 1016.79C-88.492 996.596 -104.513 972.619 -115.443 946.23C-126.374 919.842 -131.999 891.559 -131.999 862.997C-131.999 834.434 -126.374 806.152 -115.443 779.764C-104.513 753.375 -88.492 729.398 -68.2953 709.202C-48.0986 689.005 -24.1217 672.984 2.26659 662.054C28.6548 651.123 56.9376 645.498 85.5 645.498L85.5 1080.5Z" fill="url(#paint5_angular_1571_648)"/>
<path d="M85.5 1515.5C56.9375 1515.5 28.6548 1509.87 2.26655 1498.94C-24.1217 1488.01 -48.0986 1471.99 -68.2953 1451.79C-88.492 1431.6 -104.513 1407.62 -115.443 1381.23C-126.374 1354.84 -131.999 1326.56 -131.999 1298C-131.999 1269.44 -126.374 1241.15 -115.443 1214.77C-104.513 1188.38 -88.492 1164.4 -68.2953 1144.2C-48.0986 1124.01 -24.1217 1107.99 2.26659 1097.06C28.6548 1086.13 56.9376 1080.5 85.5 1080.5L85.5 1515.5Z" fill="url(#paint6_angular_1571_648)"/>
<path d="M85.5001 862.999C114.063 862.999 142.345 868.625 168.733 879.555C195.122 890.485 219.099 906.506 239.295 926.703C259.492 946.9 275.513 970.877 286.443 997.265C297.374 1023.65 302.999 1051.94 302.999 1080.5C302.999 1109.06 297.374 1137.34 286.443 1163.73C275.513 1190.12 259.492 1214.1 239.295 1234.29C219.099 1254.49 195.122 1270.51 168.733 1281.44C142.345 1292.37 114.062 1298 85.5 1298L85.5001 862.999Z" fill="url(#paint7_angular_1571_648)"/>
<path d="M85.5001 428C114.063 428 142.345 433.626 168.733 444.556C195.122 455.487 219.099 471.508 239.295 491.704C259.492 511.901 275.513 535.878 286.443 562.266C297.374 588.655 302.999 616.937 302.999 645.5C302.999 674.062 297.374 702.345 286.443 728.733C275.513 755.121 259.492 779.098 239.295 799.295C219.099 819.492 195.122 835.513 168.733 846.443C142.345 857.373 114.062 862.999 85.5 862.999L85.5001 428Z" fill="url(#paint8_angular_1571_648)"/>
</g>
<defs>
<radialGradient id="paint0_angular_1571_648" cx="0" cy="0" r="1" gradientUnits="userSpaceOnUse" gradientTransform="translate(520.484 862.999) scale(217.499 217.499)">
<stop stop-color="#96E0E4"/>
<stop offset="0.0001" stop-color="#E3E496"/>
<stop offset="0.333333" stop-color="#E25B5B"/>
<stop offset="0.666667" stop-color="#CF0A69"/>
<stop offset="1" stop-color="#9F1B6B"/>
</radialGradient>
<radialGradient id="paint1_angular_1571_648" cx="0" cy="0" r="1" gradientUnits="userSpaceOnUse" gradientTransform="translate(520.484 427.999) scale(217.499 217.499)">
<stop stop-color="#96E0E4"/>
<stop offset="0.0001" stop-color="#E3E496"/>
<stop offset="0.333333" stop-color="#E25B5B"/>
<stop offset="0.666667" stop-color="#CF0A69"/>
<stop offset="1" stop-color="#9F1B6B"/>
</radialGradient>
<radialGradient id="paint2_angular_1571_648" cx="0" cy="0" r="1" gradientUnits="userSpaceOnUse" gradientTransform="translate(520.484 645.499) rotate(-180) scale(217.499 217.499)">
<stop stop-color="#96E0E4"/>
<stop offset="0.0001" stop-color="#E3E496"/>
<stop offset="0.333333" stop-color="#E25B5B"/>
<stop offset="0.666667" stop-color="#CF0A69"/>
<stop offset="1" stop-color="#9F1B6B"/>
</radialGradient>
<radialGradient id="paint3_angular_1571_648" cx="0" cy="0" r="1" gradientUnits="userSpaceOnUse" gradientTransform="translate(520.484 210.5) rotate(-180) scale(217.499 217.499)">
<stop stop-color="#96E0E4"/>
<stop offset="0.0001" stop-color="#E3E496"/>
<stop offset="0.333333" stop-color="#E25B5B"/>
<stop offset="0.666667" stop-color="#CF0A69"/>
<stop offset="1" stop-color="#9F1B6B"/>
</radialGradient>
<radialGradient id="paint4_angular_1571_648" cx="0" cy="0" r="1" gradientUnits="userSpaceOnUse" gradientTransform="translate(520.484 1080.5) rotate(-180) scale(217.499 217.499)">
<stop stop-color="#96E0E4"/>
<stop offset="0.0001" stop-color="#E3E496"/>
<stop offset="0.333333" stop-color="#E25B5B"/>
<stop offset="0.666667" stop-color="#CF0A69"/>
<stop offset="1" stop-color="#9F1B6B"/>
</radialGradient>
<radialGradient id="paint5_angular_1571_648" cx="0" cy="0" r="1" gradientUnits="userSpaceOnUse" gradientTransform="translate(85.5 862.997) rotate(-180) scale(217.499 217.499)">
<stop stop-color="#96E0E4"/>
<stop offset="0.0001" stop-color="#E3E496"/>
<stop offset="0.333333" stop-color="#E25B5B"/>
<stop offset="0.666667" stop-color="#CF0A69"/>
<stop offset="1" stop-color="#9F1B6B"/>
</radialGradient>
<radialGradient id="paint6_angular_1571_648" cx="0" cy="0" r="1" gradientUnits="userSpaceOnUse" gradientTransform="translate(85.5 1298) rotate(-180) scale(217.499 217.499)">
<stop stop-color="#96E0E4"/>
<stop offset="0.0001" stop-color="#E3E496"/>
<stop offset="0.333333" stop-color="#E25B5B"/>
<stop offset="0.666667" stop-color="#CF0A69"/>
<stop offset="1" stop-color="#9F1B6B"/>
</radialGradient>
<radialGradient id="paint7_angular_1571_648" cx="0" cy="0" r="1" gradientUnits="userSpaceOnUse" gradientTransform="translate(85.5 1080.5) scale(217.499 217.499)">
<stop stop-color="#96E0E4"/>
<stop offset="0.0001" stop-color="#E3E496"/>
<stop offset="0.333333" stop-color="#E25B5B"/>
<stop offset="0.666667" stop-color="#CF0A69"/>
<stop offset="1" stop-color="#9F1B6B"/>
</radialGradient>
<radialGradient id="paint8_angular_1571_648" cx="0" cy="0" r="1" gradientUnits="userSpaceOnUse" gradientTransform="translate(85.5 645.5) scale(217.499 217.499)">
<stop stop-color="#96E0E4"/>
<stop offset="0.0001" stop-color="#E3E496"/>
<stop offset="0.333333" stop-color="#E25B5B"/>
<stop offset="0.666667" stop-color="#CF0A69"/>
<stop offset="1" stop-color="#9F1B6B"/>
</radialGradient>
</defs>
</svg>
