<svg width="20" height="20" viewBox="0 0 20 20" fill="none" xmlns="http://www.w3.org/2000/svg">
<path d="M4.70711 3.29289C4.31658 2.90237 3.68342 2.90237 3.29289 3.29289C2.90237 3.68342 2.90237 4.31658 3.29289 4.70711L4.70711 3.29289ZM15.3137 16.3137C15.866 16.3137 16.3137 15.866 16.3137 15.3137L16.3137 6.31371C16.3137 5.76142 15.866 5.31371 15.3137 5.31371C14.7614 5.31371 14.3137 5.76142 14.3137 6.31371L14.3137 14.3137L6.31371 14.3137C5.76142 14.3137 5.31371 14.7614 5.31371 15.3137C5.31371 15.866 5.76142 16.3137 6.31371 16.3137L15.3137 16.3137ZM3.29289 4.70711L14.6066 16.0208L16.0208 14.6066L4.70711 3.29289L3.29289 4.70711Z" fill="currentColor"/>
</svg>
