<svg width="20" height="20" viewBox="0 0 20 20" fill="none" xmlns="http://www.w3.org/2000/svg">
<path d="M3.29289 15.2929C2.90237 15.6834 2.90237 16.3166 3.29289 16.7071C3.68342 17.0976 4.31658 17.0976 4.70711 16.7071L3.29289 15.2929ZM16.3137 4.68629C16.3137 4.13401 15.866 3.68629 15.3137 3.68629L6.31371 3.68629C5.76142 3.68629 5.31371 4.13401 5.31371 4.68629C5.31371 5.23858 5.76142 5.68629 6.31371 5.68629H14.3137V13.6863C14.3137 14.2386 14.7614 14.6863 15.3137 14.6863C15.866 14.6863 16.3137 14.2386 16.3137 13.6863L16.3137 4.68629ZM4.70711 16.7071L16.0208 5.3934L14.6066 3.97919L3.29289 15.2929L4.70711 16.7071Z" fill="currentColor"/>
</svg>