<svg width="20" height="20" viewBox="0 0 20 20" fill="none" xmlns="http://www.w3.org/2000/svg">
<path fill-rule="evenodd" clip-rule="evenodd" d="M10 8.07229L7.63763 5.7099C6.69109 4.76337 5.15644 4.76337 4.2099 5.7099C3.26337 6.65644 3.26336 8.19109 4.20991 9.13763L10 14.9277L15.7901 9.13764C16.7366 8.1911 16.7366 6.65646 15.7901 5.70992L17.2043 4.2957C18.9319 6.02329 18.9319 8.82427 17.2043 10.5519L10.7071 17.049C10.3166 17.4396 9.68342 17.4396 9.2929 17.0491L2.79569 10.5518C1.0681 8.82425 1.0681 6.02328 2.79569 4.29569C4.52305 2.56833 7.32352 2.5681 9.05117 4.29502C9.05094 4.29479 9.05139 4.29524 9.05117 4.29502L10 5.24386L10.9482 4.2957C10.948 4.29585 10.9483 4.29556 10.9482 4.2957C12.6758 2.56855 15.4769 2.56826 17.2043 4.2957L15.7901 5.70992C14.8436 4.76338 13.3089 4.76338 12.3624 5.70992L10 8.07229Z" fill="white"/>
</svg>
