<svg width="305" height="92" viewBox="0 0 305 92" fill="none" xmlns="http://www.w3.org/2000/svg">
<g clip-path="url(#clip0_1806_2401)">
<path d="M104.062 35.25C104.062 41 102.727 45.48 100.062 48.6875C97.395 51.8975 93.645 53.5 88.8125 53.5C84.5625 53.5 81.29 52.335 79 50C76.7075 47.6675 75.5625 44.1675 75.5625 39.5V26.375H59.8125V40.75C59.8125 45.835 60.8125 50.335 62.8125 54.25C64.8125 58.1675 67.625 61.23 71.25 63.4375C74.875 65.6475 79.1025 66.75 83.9375 66.75C87.6875 66.75 90.77 66.29 93.1875 65.375C95.6025 64.46 97.52 63.2925 98.9375 61.875C100.355 60.4575 101.395 59.0425 102.062 57.625H104.312V73.25C104.312 75.75 103.145 77 100.812 77H67.0625V90.7501H106.062C110.227 90.7501 113.562 89.4776 116.062 86.9376C118.562 84.3951 119.812 81.0001 119.812 76.75V26.375H104.062V35.25Z" fill="black"/>
<path d="M32.0625 0H16.3125V26.375H0V39.375H16.3125V51.7501C16.3125 56.0001 17.5825 59.3976 20.125 61.9376C22.665 64.4801 25.9775 65.7501 30.0625 65.7501H47.5625V52.7501H35.5625C33.2275 52.7501 32.0625 51.5001 32.0625 49.0001V39.375H48.25V26.375H32.0625V0Z" fill="black"/>
<path d="M215.312 0H199.562V26.375H162.875V16.75C162.875 14.25 164.04 13 166.375 13H178.375V0H160.875C156.79 0 153.477 1.27 150.938 3.8125C148.395 6.35251 147.125 9.75001 147.125 14V26.375H130.812V39.375H147.125V65.7501H162.875V39.375H199.562V49.0001C199.562 51.5001 198.398 52.7501 196.062 52.7501H184.062V65.7501H201.562C205.648 65.7501 208.96 64.4801 211.5 61.9376C214.043 59.3976 215.312 56.0001 215.312 51.7501V39.375H231.625V26.375H215.312V0Z" fill="black"/>
<path d="M304.688 39.375V34C304.688 30.6275 304.461 28.78 304.013 26.375H244.228C243.786 28.7725 243.561 31.31 243.561 34V35.5C243.561 42 244.873 47.6475 247.498 52.4375C250.123 57.23 253.788 60.9375 258.498 63.5625C263.206 66.1875 268.643 67.5 274.811 67.5C280.476 67.5 285.143 66.6025 288.811 64.8125C292.476 63.0225 295.413 60.855 297.623 58.3125C299.831 55.7725 301.518 53.4175 302.686 51.25L289.811 44.5C288.726 46.835 287.143 48.96 285.061 50.875C282.976 52.7925 279.726 53.75 275.311 53.75C270.896 53.75 267.311 52.4175 264.311 49.75C261.311 47.085 259.726 43.625 259.561 39.375H301.128H304.686H304.688Z" fill="black"/>
<path d="M153.877 85.8833C153.277 85.4283 152.404 85.1558 151.259 85.0633C150.192 84.9833 149.459 84.8208 149.057 84.5708C148.654 84.3208 148.454 83.9583 148.454 83.4833C148.454 83.2458 148.514 83.0383 148.632 82.8608C148.749 82.6833 148.909 82.5358 149.107 82.4158C149.304 82.2958 149.532 82.2083 149.789 82.1483C150.047 82.0883 150.312 82.0583 150.589 82.0583C151.299 82.0583 151.877 82.2358 152.317 82.5908C152.757 82.9458 153.012 83.4408 153.077 84.0708L154.539 83.7158C154.487 83.3483 154.372 82.9783 154.194 82.6108C154.017 82.2433 153.762 81.9158 153.434 81.6333C153.104 81.3508 152.697 81.1208 152.209 80.9433C151.722 80.7658 151.157 80.6758 150.512 80.6758C150.052 80.6758 149.609 80.7358 149.189 80.8533C148.767 80.9708 148.389 81.1508 148.054 81.3858C147.719 81.6233 147.452 81.9158 147.254 82.2658C147.057 82.6158 146.957 83.0208 146.957 83.4808V83.5983C146.957 84.4533 147.259 85.1058 147.864 85.5533C148.469 86.0008 149.339 86.2633 150.472 86.3433C151.447 86.4083 152.152 86.5608 152.584 86.7983C153.017 87.0358 153.237 87.4308 153.237 87.9833C153.237 88.4958 153.017 88.8958 152.574 89.1783C152.132 89.4608 151.549 89.6033 150.827 89.6033C149.972 89.6033 149.287 89.3758 148.772 88.9208C148.259 88.4658 147.969 87.8633 147.902 87.1133L146.439 87.4683C146.464 87.9033 146.572 88.3333 146.754 88.7608C146.939 89.1883 147.212 89.5708 147.574 89.9058C147.937 90.2408 148.389 90.5108 148.937 90.7158C149.484 90.9208 150.139 91.0208 150.902 91.0208C151.467 91.0208 151.992 90.9508 152.472 90.8133C152.952 90.6758 153.362 90.4733 153.697 90.2108C154.032 89.9483 154.297 89.6283 154.487 89.2533C154.677 88.8783 154.774 88.4533 154.774 87.9808V87.8633C154.774 86.9933 154.474 86.3333 153.877 85.8783V85.8833Z" fill="black"/>
<path d="M175.71 76.9254H174.17V80.9554H171.09V82.3779H174.17V89.2104C174.17 89.6579 174.312 90.0279 174.595 90.3154C174.877 90.6054 175.242 90.7504 175.69 90.7504H179.027V89.3279H176.242C175.887 89.3279 175.71 89.1304 175.71 88.7354V82.3754H179.502V80.9529H175.71V76.9229V76.9254Z" fill="black"/>
<path d="M203.421 86.0501C203.421 87.1176 203.153 87.9701 202.621 88.6076C202.088 89.2451 201.353 89.5651 200.418 89.5651C199.548 89.5651 198.903 89.3276 198.483 88.8551C198.061 88.3801 197.851 87.6301 197.851 86.6026V80.9551H196.311V86.8001C196.311 87.4976 196.401 88.1101 196.578 88.6376C196.756 89.1651 197.006 89.6051 197.328 89.9601C197.651 90.3151 198.038 90.5826 198.493 90.7601C198.948 90.9376 199.443 91.0276 199.983 91.0276C200.773 91.0276 201.426 90.8426 201.938 90.4751C202.451 90.1076 202.866 89.6051 203.183 88.9751H203.421V90.7526H204.961V80.9576H203.421V86.0526V86.0501Z" fill="black"/>
<path d="M229.014 82.4954H228.776C228.461 81.8779 228.009 81.4204 227.424 81.1229C226.839 80.8279 226.209 80.6779 225.539 80.6779C224.906 80.6779 224.309 80.7904 223.741 81.0129C223.174 81.2379 222.681 81.5629 222.261 81.9904C221.839 82.4179 221.504 82.9454 221.254 83.5704C221.004 84.1954 220.879 84.9029 220.879 85.6929V86.0079C220.879 86.8104 221.001 87.5254 221.244 88.1504C221.486 88.7754 221.824 89.3004 222.251 89.7204C222.679 90.1429 223.176 90.4654 223.741 90.6879C224.306 90.9129 224.919 91.0229 225.579 91.0229C225.869 91.0229 226.171 90.9854 226.486 90.9154C226.801 90.8429 227.101 90.7354 227.384 90.5904C227.666 90.4454 227.929 90.2604 228.174 90.0379C228.416 89.8129 228.619 89.5504 228.776 89.2479H229.014V90.7479H230.554V76.9229H229.014V82.4929V82.4954ZM229.014 85.9704C229.014 86.5104 228.929 87.0004 228.756 87.4429C228.586 87.8829 228.351 88.2629 228.056 88.5779C227.759 88.8929 227.414 89.1379 227.019 89.3079C226.624 89.4779 226.196 89.5654 225.734 89.5654C225.271 89.5654 224.826 89.4829 224.431 89.3179C224.036 89.1529 223.691 88.9154 223.394 88.6079C223.099 88.2979 222.866 87.9254 222.704 87.4929C222.539 87.0579 222.456 86.5654 222.456 86.0129V85.6979C222.456 85.1704 222.539 84.6904 222.704 84.2554C222.869 83.8204 223.099 83.4454 223.394 83.1304C223.691 82.8154 224.039 82.5704 224.441 82.4004C224.844 82.2304 225.274 82.1429 225.734 82.1429C226.194 82.1429 226.606 82.2329 227.009 82.4104C227.411 82.5879 227.759 82.8354 228.056 83.1504C228.351 83.4654 228.586 83.8454 228.756 84.2854C228.926 84.7254 229.014 85.2104 229.014 85.7379V85.9754V85.9704Z" fill="black"/>
<path d="M251.647 80.9551H247.027V82.3751H250.107V89.3276H246.672V90.7501H254.847V89.3276H251.647V80.9551Z" fill="black"/>
<path d="M251.837 79.0075C252.107 78.7375 252.242 78.4125 252.242 78.03C252.242 77.6475 252.107 77.3225 251.837 77.0525C251.567 76.7825 251.242 76.6475 250.859 76.6475C250.477 76.6475 250.152 76.7825 249.882 77.0525C249.612 77.3225 249.477 77.6475 249.477 78.03C249.477 78.4125 249.612 78.7375 249.882 79.0075C250.152 79.2775 250.477 79.4125 250.859 79.4125C251.242 79.4125 251.567 79.2775 251.837 79.0075Z" fill="black"/>
<path d="M279.189 82.0002C278.734 81.5652 278.212 81.2377 277.619 81.0127C277.027 80.7902 276.407 80.6777 275.762 80.6777C275.117 80.6777 274.497 80.7902 273.904 81.0127C273.312 81.2377 272.789 81.5652 272.334 82.0002C271.879 82.4352 271.517 82.9652 271.247 83.5902C270.977 84.2152 270.842 84.9302 270.842 85.7327V85.9702C270.842 86.7877 270.977 87.5077 271.247 88.1327C271.517 88.7577 271.874 89.2852 272.324 89.7127C272.772 90.1402 273.292 90.4677 273.884 90.6902C274.477 90.9152 275.102 91.0252 275.759 91.0252C276.417 91.0252 277.027 90.9127 277.627 90.6902C278.227 90.4677 278.749 90.1402 279.197 89.7127C279.644 89.2852 280.004 88.7577 280.274 88.1327C280.544 87.5077 280.679 86.7877 280.679 85.9702V85.7327C280.679 84.9302 280.544 84.2152 280.274 83.5902C280.004 82.9652 279.642 82.4352 279.189 82.0002ZM279.099 85.9702C279.099 86.5227 279.014 87.0202 278.842 87.4602C278.669 87.9002 278.434 88.2802 278.132 88.5952C277.829 88.9102 277.477 89.1527 277.074 89.3152C276.672 89.4802 276.234 89.5627 275.762 89.5627C275.289 89.5627 274.849 89.4802 274.449 89.3152C274.047 89.1502 273.694 88.9102 273.392 88.5952C273.089 88.2802 272.852 87.9002 272.682 87.4602C272.512 87.0202 272.424 86.5227 272.424 85.9702V85.7327C272.424 85.2052 272.509 84.7227 272.682 84.2802C272.854 83.8377 273.089 83.4602 273.392 83.1452C273.694 82.8302 274.049 82.5827 274.459 82.4052C274.867 82.2277 275.302 82.1377 275.762 82.1377C276.222 82.1377 276.657 82.2277 277.064 82.4052C277.472 82.5827 277.827 82.8302 278.132 83.1452C278.434 83.4602 278.672 83.8402 278.842 84.2802C279.012 84.7202 279.099 85.2052 279.099 85.7327V85.9702Z" fill="black"/>
</g>
<defs>
<clipPath id="clip0_1806_2401">
<rect width="304.688" height="91.0276" fill="white"/>
</clipPath>
</defs>
</svg>
