<svg width="106" height="105" viewBox="0 0 106 105" style="overflow: visible" fill="none" xmlns="http://www.w3.org/2000/svg">
   <g filter="url(#filter0_ddii_291_520)">
      <path class="eggMask eggYellow" d="M35.6079 71.5318C20.3605 70.6211 8.73829 57.5223 9.64902 42.2749L10.0513 35.5398C11.0917 18.121 26.0559 4.84366 43.4747 5.88408L48.47 6.18245C64.6783 7.15057 77.0329 21.0748 76.0648 37.2831V37.2831C74.8596 57.4607 57.5254 72.841 37.3477 71.6357L35.6079 71.5318Z" fill="#FFC32A"/>
   </g>
   <mask id="mask0_291_520" style="mask-type:alpha" maskUnits="userSpaceOnUse" x="9" y="5" width="105" height="67">
      <path class="eggMask" d="M35.6079 71.5318C20.3605 70.6211 8.73829 57.5223 9.64902 42.2749L10.0513 35.5398C11.0917 18.121 26.0559 4.84366 43.4747 5.88408L48.47 6.18245C64.6783 7.15057 77.0329 21.0748 76.0648 37.2831V37.2831C74.8596 57.4607 57.5254 72.841 37.3477 71.6357L35.6079 71.5318Z" fill="#D9D9D9"/>
   </mask>

   <g class="eggMask">
      <path opacity="0.3" d="M16.6436 55.8468C21.9852 63.9991 31.1603 68.3014 40.8808 68.245C31.7786 64.5381 23.8487 58.3182 18.2435 49.7637C15.7091 45.8957 13.802 41.7825 12.4949 37.5285C11.7248 43.8749 13.0197 50.316 16.6436 55.8468Z" fill="white"/>
      <path opacity="0.3" d="M65.034 18.7658C59.3397 12.2715 51.0589 9.36433 42.9996 10.2077C51.1278 12.6146 58.6716 17.254 64.6469 24.0687C67.3487 27.15 69.5677 30.4911 71.3105 34.0011C70.9681 28.5421 68.8973 23.1717 65.034 18.7658Z" fill="white"/>
   </g>
   
   <g mask="url(#mask0_291_520)">
      <g opacity="1">
         <path d="M21.0782 34.9764V27.1464H18.3242V25.5264H25.6142V27.1464H22.8602V34.9764H21.0782Z" fill="black"/>
         <path d="M27.1517 34.9764V25.5264H28.8527V29.1039H29.0957C29.1677 28.9599 29.2802 28.8159 29.4332 28.6719C29.5862 28.5279 29.7887 28.4109 30.0407 28.3209C30.3017 28.2219 30.6302 28.1724 31.0262 28.1724C31.5482 28.1724 32.0027 28.2939 32.3897 28.5369C32.7857 28.7709 33.0917 29.0994 33.3077 29.5224C33.5237 29.9364 33.6317 30.4224 33.6317 30.9804V34.9764H31.9307V31.1154C31.9307 30.6114 31.8047 30.2334 31.5527 29.9814C31.3097 29.7294 30.9587 29.6034 30.4997 29.6034C29.9777 29.6034 29.5727 29.7789 29.2847 30.1299C28.9967 30.4719 28.8527 30.9534 28.8527 31.5744V34.9764H27.1517Z" fill="black"/>
         <path d="M38.7916 35.1654C38.1256 35.1654 37.5361 35.0259 37.0231 34.7469C36.5191 34.4589 36.1231 34.0584 35.8351 33.5454C35.5561 33.0234 35.4166 32.4114 35.4166 31.7094V31.5474C35.4166 30.8454 35.5561 30.2379 35.8351 29.7249C36.1141 29.2029 36.5056 28.8024 37.0096 28.5234C37.5136 28.2354 38.0986 28.0914 38.7646 28.0914C39.4216 28.0914 39.9931 28.2399 40.4791 28.5369C40.9651 28.8249 41.3431 29.2299 41.6131 29.7519C41.8831 30.2649 42.0181 30.8634 42.0181 31.5474V32.1279H37.1446C37.1626 32.5869 37.3336 32.9604 37.6576 33.2484C37.9816 33.5364 38.3776 33.6804 38.8456 33.6804C39.3226 33.6804 39.6736 33.5769 39.8986 33.3699C40.1236 33.1629 40.2946 32.9334 40.4116 32.6814L41.8021 33.4104C41.6761 33.6444 41.4916 33.9009 41.2486 34.1799C41.0146 34.4499 40.6996 34.6839 40.3036 34.8819C39.9076 35.0709 39.4036 35.1654 38.7916 35.1654ZM37.1581 30.8589H40.2901C40.2541 30.4719 40.0966 30.1614 39.8176 29.9274C39.5476 29.6934 39.1921 29.5764 38.7511 29.5764C38.2921 29.5764 37.9276 29.6934 37.6576 29.9274C37.3876 30.1614 37.2211 30.4719 37.1581 30.8589Z" fill="black"/>
         <path d="M48.2288 37.6764V36.1914H51.8738C52.1258 36.1914 52.2518 36.0564 52.2518 35.7864V34.0989H52.0088C51.9368 34.2519 51.8243 34.4049 51.6713 34.5579C51.5183 34.7109 51.3113 34.8369 51.0503 34.9359C50.7893 35.0349 50.4563 35.0844 50.0513 35.0844C49.5293 35.0844 49.0703 34.9674 48.6743 34.7334C48.2873 34.4904 47.9858 34.1574 47.7698 33.7344C47.5538 33.3114 47.4458 32.8254 47.4458 32.2764V28.2804H49.1468V32.1414C49.1468 32.6454 49.2683 33.0234 49.5113 33.2754C49.7633 33.5274 50.1188 33.6534 50.5778 33.6534C51.0998 33.6534 51.5048 33.4824 51.7928 33.1404C52.0808 32.7894 52.2248 32.3034 52.2248 31.6824V28.2804H53.9258V36.1644C53.9258 36.6234 53.7908 36.9879 53.5208 37.2579C53.2508 37.5369 52.8908 37.6764 52.4408 37.6764H48.2288Z" fill="black"/>
         <path d="M59.1397 35.1654C58.4737 35.1654 57.8842 35.0259 57.3712 34.7469C56.8672 34.4589 56.4712 34.0584 56.1832 33.5454C55.9042 33.0234 55.7647 32.4114 55.7647 31.7094V31.5474C55.7647 30.8454 55.9042 30.2379 56.1832 29.7249C56.4622 29.2029 56.8537 28.8024 57.3577 28.5234C57.8617 28.2354 58.4467 28.0914 59.1127 28.0914C59.7697 28.0914 60.3412 28.2399 60.8272 28.5369C61.3132 28.8249 61.6912 29.2299 61.9612 29.7519C62.2312 30.2649 62.3662 30.8634 62.3662 31.5474V32.1279H57.4927C57.5107 32.5869 57.6817 32.9604 58.0057 33.2484C58.3297 33.5364 58.7257 33.6804 59.1937 33.6804C59.6707 33.6804 60.0217 33.5769 60.2467 33.3699C60.4717 33.1629 60.6427 32.9334 60.7597 32.6814L62.1502 33.4104C62.0242 33.6444 61.8397 33.9009 61.5967 34.1799C61.3627 34.4499 61.0477 34.6839 60.6517 34.8819C60.2557 35.0709 59.7517 35.1654 59.1397 35.1654ZM57.5062 30.8589H60.6382C60.6022 30.4719 60.4447 30.1614 60.1657 29.9274C59.8957 29.6934 59.5402 29.5764 59.0992 29.5764C58.6402 29.5764 58.2757 29.6934 58.0057 29.9274C57.7357 30.1614 57.5692 30.4719 57.5062 30.8589Z" fill="black"/>
         <path d="M64.1502 34.9764V25.5264H65.8512V34.9764H64.1502Z" fill="black"/>
         <path d="M68.0061 34.9764V25.5264H69.7071V34.9764H68.0061Z" fill="black"/>
         <path d="M75.0481 35.1654C74.3821 35.1654 73.7836 35.0304 73.2526 34.7604C72.7216 34.4904 72.3031 34.0989 71.9971 33.5859C71.6911 33.0729 71.5381 32.4564 71.5381 31.7364V31.5204C71.5381 30.8004 71.6911 30.1839 71.9971 29.6709C72.3031 29.1579 72.7216 28.7664 73.2526 28.4964C73.7836 28.2264 74.3821 28.0914 75.0481 28.0914C75.7141 28.0914 76.3126 28.2264 76.8436 28.4964C77.3746 28.7664 77.7931 29.1579 78.0991 29.6709C78.4051 30.1839 78.5581 30.8004 78.5581 31.5204V31.7364C78.5581 32.4564 78.4051 33.0729 78.0991 33.5859C77.7931 34.0989 77.3746 34.4904 76.8436 34.7604C76.3126 35.0304 75.7141 35.1654 75.0481 35.1654ZM75.0481 33.6534C75.5701 33.6534 76.0021 33.4869 76.3441 33.1539C76.6861 32.8119 76.8571 32.3259 76.8571 31.6959V31.5609C76.8571 30.9309 76.6861 30.4494 76.3441 30.1164C76.0111 29.7744 75.5791 29.6034 75.0481 29.6034C74.5261 29.6034 74.0941 29.7744 73.7521 30.1164C73.4101 30.4494 73.2391 30.9309 73.2391 31.5609V31.6959C73.2391 32.3259 73.4101 32.8119 73.7521 33.1539C74.0941 33.4869 74.5261 33.6534 75.0481 33.6534Z" fill="black"/>
         <path d="M80.9118 34.9764L79.9668 28.2804H81.6543L82.2483 33.8289H82.4913L83.3553 28.2804H86.0823L86.9463 33.8289H87.1893L87.7833 28.2804H89.4708L88.5258 34.9764H85.7043L84.8403 29.4279H84.5973L83.7333 34.9764H80.9118Z" fill="black"/>
         <path d="M20.0522 48.9764V43.6844H18.3512V42.2804H20.0522V41.0384C20.0522 40.5794 20.1872 40.2149 20.4572 39.9449C20.7362 39.6659 21.0962 39.5264 21.5372 39.5264H23.2922V40.9304H22.1312C21.8792 40.9304 21.7532 41.0654 21.7532 41.3354V42.2804H23.5082V43.6844H21.7532V48.9764H20.0522Z" fill="black"/>
         <path d="M25.0951 48.9764V42.2804H26.7691V43.0364H27.0121C27.1111 42.7664 27.2731 42.5684 27.4981 42.4424C27.7321 42.3164 28.0021 42.2534 28.3081 42.2534H29.1181V43.7654H28.2811C27.8491 43.7654 27.4936 43.8824 27.2146 44.1164C26.9356 44.3414 26.7961 44.6924 26.7961 45.1694V48.9764H25.0951Z" fill="black"/>
         <path d="M33.6663 49.1654C33.0003 49.1654 32.4018 49.0304 31.8708 48.7604C31.3398 48.4904 30.9213 48.0989 30.6153 47.5859C30.3093 47.0729 30.1563 46.4564 30.1563 45.7364V45.5204C30.1563 44.8004 30.3093 44.1839 30.6153 43.6709C30.9213 43.1579 31.3398 42.7664 31.8708 42.4964C32.4018 42.2264 33.0003 42.0914 33.6663 42.0914C34.3323 42.0914 34.9308 42.2264 35.4618 42.4964C35.9928 42.7664 36.4113 43.1579 36.7173 43.6709C37.0233 44.1839 37.1763 44.8004 37.1763 45.5204V45.7364C37.1763 46.4564 37.0233 47.0729 36.7173 47.5859C36.4113 48.0989 35.9928 48.4904 35.4618 48.7604C34.9308 49.0304 34.3323 49.1654 33.6663 49.1654ZM33.6663 47.6534C34.1883 47.6534 34.6203 47.4869 34.9623 47.1539C35.3043 46.8119 35.4753 46.3259 35.4753 45.6959V45.5609C35.4753 44.9309 35.3043 44.4494 34.9623 44.1164C34.6293 43.7744 34.1973 43.6034 33.6663 43.6034C33.1443 43.6034 32.7123 43.7744 32.3703 44.1164C32.0283 44.4494 31.8573 44.9309 31.8573 45.5609V45.6959C31.8573 46.3259 32.0283 46.8119 32.3703 47.1539C32.7123 47.4869 33.1443 47.6534 33.6663 47.6534Z" fill="black"/>
         <path d="M39.0164 48.9764V42.2804H40.6904V43.0094H40.9334C41.0504 42.7844 41.244 42.5909 41.514 42.4289C41.784 42.2579 42.1395 42.1724 42.5805 42.1724C43.0575 42.1724 43.4399 42.2669 43.7279 42.4559C44.0159 42.6359 44.2365 42.8744 44.3895 43.1714H44.6325C44.7855 42.8834 45.0014 42.6449 45.2804 42.4559C45.5594 42.2669 45.9555 42.1724 46.4685 42.1724C46.8825 42.1724 47.2559 42.2624 47.5889 42.4424C47.9309 42.6134 48.201 42.8789 48.399 43.2389C48.606 43.5899 48.7094 44.0354 48.7094 44.5754V48.9764H47.0084V44.6969C47.0084 44.3279 46.9139 44.0534 46.7249 43.8734C46.5359 43.6844 46.2704 43.5899 45.9284 43.5899C45.5414 43.5899 45.24 43.7159 45.024 43.9679C44.817 44.2109 44.7134 44.5619 44.7134 45.0209V48.9764H43.0124V44.6969C43.0124 44.3279 42.918 44.0534 42.729 43.8734C42.54 43.6844 42.2744 43.5899 41.9324 43.5899C41.5454 43.5899 41.244 43.7159 41.028 43.9679C40.821 44.2109 40.7174 44.5619 40.7174 45.0209V48.9764H39.0164Z" fill="black"/>
         <path d="M57.0716 48.9764C56.6306 48.9764 56.2706 48.8414 55.9916 48.5714C55.7216 48.2924 55.5866 47.9234 55.5866 47.4644V43.6844H53.9126V42.2804H55.5866V40.2014H57.2876V42.2804H59.1236V43.6844H57.2876V47.1674C57.2876 47.4374 57.4136 47.5724 57.6656 47.5724H58.9616V48.9764H57.0716Z" fill="black"/>
         <path d="M60.9334 48.9764V39.5264H62.6344V43.1039H62.8774C62.9494 42.9599 63.0619 42.8159 63.2149 42.6719C63.3679 42.5279 63.5704 42.4109 63.8224 42.3209C64.0834 42.2219 64.4119 42.1724 64.8079 42.1724C65.3299 42.1724 65.7844 42.2939 66.1714 42.5369C66.5674 42.7709 66.8734 43.0994 67.0894 43.5224C67.3054 43.9364 67.4134 44.4224 67.4134 44.9804V48.9764H65.7124V45.1154C65.7124 44.6114 65.5864 44.2334 65.3344 43.9814C65.0914 43.7294 64.7404 43.6034 64.2814 43.6034C63.7594 43.6034 63.3544 43.7789 63.0664 44.1299C62.7784 44.4719 62.6344 44.9534 62.6344 45.5744V48.9764H60.9334Z" fill="black"/>
         <path d="M72.5732 49.1654C71.9072 49.1654 71.3177 49.0259 70.8047 48.7469C70.3007 48.4589 69.9047 48.0584 69.6167 47.5454C69.3377 47.0234 69.1982 46.4114 69.1982 45.7094V45.5474C69.1982 44.8454 69.3377 44.2379 69.6167 43.7249C69.8957 43.2029 70.2872 42.8024 70.7912 42.5234C71.2952 42.2354 71.8802 42.0914 72.5462 42.0914C73.2032 42.0914 73.7747 42.2399 74.2607 42.5369C74.7467 42.8249 75.1247 43.2299 75.3947 43.7519C75.6647 44.2649 75.7997 44.8634 75.7997 45.5474V46.1279H70.9262C70.9442 46.5869 71.1152 46.9604 71.4392 47.2484C71.7632 47.5364 72.1592 47.6804 72.6272 47.6804C73.1042 47.6804 73.4552 47.5769 73.6802 47.3699C73.9052 47.1629 74.0762 46.9334 74.1932 46.6814L75.5837 47.4104C75.4577 47.6444 75.2732 47.9009 75.0302 48.1799C74.7962 48.4499 74.4812 48.6839 74.0852 48.8819C73.6892 49.0709 73.1852 49.1654 72.5732 49.1654ZM70.9397 44.8589H74.0717C74.0357 44.4719 73.8782 44.1614 73.5992 43.9274C73.3292 43.6934 72.9737 43.5764 72.5327 43.5764C72.0737 43.5764 71.7092 43.6934 71.4392 43.9274C71.1692 44.1614 71.0027 44.4719 70.9397 44.8589Z" fill="black"/>
         <path d="M84.3325 49.1654C83.6665 49.1654 83.077 49.0259 82.564 48.7469C82.06 48.4589 81.664 48.0584 81.376 47.5454C81.097 47.0234 80.9575 46.4114 80.9575 45.7094V45.5474C80.9575 44.8454 81.097 44.2379 81.376 43.7249C81.655 43.2029 82.0465 42.8024 82.5505 42.5234C83.0545 42.2354 83.6395 42.0914 84.3055 42.0914C84.9625 42.0914 85.534 42.2399 86.02 42.5369C86.506 42.8249 86.884 43.2299 87.154 43.7519C87.424 44.2649 87.559 44.8634 87.559 45.5474V46.1279H82.6855C82.7035 46.5869 82.8745 46.9604 83.1985 47.2484C83.5225 47.5364 83.9185 47.6804 84.3865 47.6804C84.8635 47.6804 85.2145 47.5769 85.4395 47.3699C85.6645 47.1629 85.8355 46.9334 85.9525 46.6814L87.343 47.4104C87.217 47.6444 87.0325 47.9009 86.7895 48.1799C86.5555 48.4499 86.2405 48.6839 85.8445 48.8819C85.4485 49.0709 84.9445 49.1654 84.3325 49.1654ZM82.699 44.8589H85.831C85.795 44.4719 85.6375 44.1614 85.3585 43.9274C85.0885 43.6934 84.733 43.5764 84.292 43.5764C83.833 43.5764 83.4685 43.6934 83.1985 43.9274C82.9285 44.1614 82.762 44.4719 82.699 44.8589Z" fill="black"/>
         <path d="M89.019 45.6554V45.4394C89.019 44.7374 89.1585 44.1389 89.4375 43.6439C89.7165 43.1399 90.0855 42.7574 90.5445 42.4964C91.0125 42.2264 91.521 42.0914 92.07 42.0914C92.682 42.0914 93.1455 42.1994 93.4605 42.4154C93.7755 42.6314 94.005 42.8564 94.149 43.0904H94.392V42.2804H96.066V50.1644C96.066 50.6234 95.931 50.9879 95.661 51.2579C95.391 51.5369 95.031 51.6764 94.581 51.6764H90.099V50.1914H93.987C94.239 50.1914 94.365 50.0564 94.365 49.7864V48.0449H94.122C94.032 48.1889 93.906 48.3374 93.744 48.4904C93.582 48.6344 93.366 48.7559 93.096 48.8549C92.826 48.9539 92.484 49.0034 92.07 49.0034C91.521 49.0034 91.0125 48.8729 90.5445 48.6119C90.0855 48.3419 89.7165 47.9594 89.4375 47.4644C89.1585 46.9604 89.019 46.3574 89.019 45.6554ZM92.556 47.5184C93.078 47.5184 93.5145 47.3519 93.8655 47.0189C94.2165 46.6859 94.392 46.2179 94.392 45.6149V45.4799C94.392 44.8679 94.2165 44.3999 93.8655 44.0759C93.5235 43.7429 93.087 43.5764 92.556 43.5764C92.034 43.5764 91.5975 43.7429 91.2465 44.0759C90.8955 44.3999 90.72 44.8679 90.72 45.4799V45.6149C90.72 46.2179 90.8955 46.6859 91.2465 47.0189C91.5975 47.3519 92.034 47.5184 92.556 47.5184Z" fill="black"/>
         <path d="M97.8979 45.6554V45.4394C97.8979 44.7374 98.0374 44.1389 98.3164 43.6439C98.5954 43.1399 98.9644 42.7574 99.4234 42.4964C99.8914 42.2264 100.4 42.0914 100.949 42.0914C101.561 42.0914 102.024 42.1994 102.339 42.4154C102.654 42.6314 102.884 42.8564 103.028 43.0904H103.271V42.2804H104.945V50.1644C104.945 50.6234 104.81 50.9879 104.54 51.2579C104.27 51.5369 103.91 51.6764 103.46 51.6764H98.9779V50.1914H102.866C103.118 50.1914 103.244 50.0564 103.244 49.7864V48.0449H103.001C102.911 48.1889 102.785 48.3374 102.623 48.4904C102.461 48.6344 102.245 48.7559 101.975 48.8549C101.705 48.9539 101.363 49.0034 100.949 49.0034C100.4 49.0034 99.8914 48.8729 99.4234 48.6119C98.9644 48.3419 98.5954 47.9594 98.3164 47.4644C98.0374 46.9604 97.8979 46.3574 97.8979 45.6554ZM101.435 47.5184C101.957 47.5184 102.393 47.3519 102.744 47.0189C103.095 46.6859 103.271 46.2179 103.271 45.6149V45.4799C103.271 44.8679 103.095 44.3999 102.744 44.0759C102.402 43.7429 101.966 43.5764 101.435 43.5764C100.913 43.5764 100.476 43.7429 100.125 44.0759C99.7744 44.3999 99.5989 44.8679 99.5989 45.4799V45.6149C99.5989 46.2179 99.7744 46.6859 100.125 47.0189C100.476 47.3519 100.913 47.5184 101.435 47.5184Z" fill="black"/>
      </g>
   </g>
</svg>
