<svg width="130" height="70" viewBox="0 0 130 70" style="overflow: visible" fill="none" xmlns="http://www.w3.org/2000/svg">
   <mask id="mask0_1842_2431" style="mask-type:alpha" maskUnits="userSpaceOnUse" x="1" y="1" width="130" height="67">
      <path class="eggMask" d="M27.6079 67.5318C12.3605 66.6211 0.73829 53.5223 1.64902 38.2749L2.0513 31.5398C3.09173 14.121 18.0559 0.84366 35.4747 1.88408L40.47 2.18245C56.6783 3.15057 69.0329 17.0748 68.0648 33.2831V33.2831C66.8596 53.4607 49.5254 68.841 29.3477 67.6357L27.6079 67.5318Z" fill="#D9D9D9"/>
   </mask>
   
   <g>
      <path class="eggMask eggYellow" d="M27.6079 67.5318C12.3605 66.6211 0.73829 53.5223 1.64902 38.2749L2.0513 31.5398C3.09173 14.121 18.0559 0.84366 35.4747 1.88408L40.47 2.18245C56.6783 3.15057 69.0329 17.0748 68.0648 33.2831V33.2831C66.8596 53.4607 49.5254 68.841 29.3477 67.6357L27.6079 67.5318Z" fill="#FFC32A"/>
      <path class="eggMask" opacity="0.2" d="M8.64362 51.8468C13.9852 59.9991 23.1603 64.3014 32.8808 64.245C23.7786 60.5381 15.8487 54.3182 10.2435 45.7637C7.70908 41.8957 5.80203 37.7825 4.49493 33.5285C3.72484 39.8749 5.01965 46.316 8.64362 51.8468Z" fill="white"/>
      <path class="eggMask" opacity="0.2" d="M57.034 14.7658C51.3397 8.27154 43.0589 5.36433 34.9996 6.20767C43.1278 8.61459 50.6716 13.254 56.6469 20.0687C59.3487 23.15 61.5677 26.4911 63.3105 30.0011C62.9681 24.5421 60.8973 19.1717 57.034 14.7658Z" fill="white"/>
   </g>
   
   <path mask="url(#mask0_1842_2431)" opacity="0.8" d="M7.44709 32V20.6872H3.46811V18.3467H14.0007V20.6872H10.0217V32H7.44709ZM16.2221 32V18.3467H18.6797V23.5154H19.0308C19.1348 23.3074 19.2973 23.0993 19.5184 22.8913C19.7395 22.6832 20.032 22.5142 20.3961 22.3842C20.7732 22.2411 21.2478 22.1696 21.82 22.1696C22.5741 22.1696 23.2308 22.3451 23.7899 22.6962C24.3621 23.0343 24.8042 23.5089 25.1163 24.1201C25.4283 24.7182 25.5844 25.4204 25.5844 26.2266V32H23.1268V26.4216C23.1268 25.6935 22.9447 25.1473 22.5806 24.7832C22.2296 24.4191 21.7224 24.2371 21.0593 24.2371C20.3051 24.2371 19.72 24.4907 19.3038 24.9978C18.8877 25.4919 18.6797 26.1876 18.6797 27.0848V32H16.2221ZM33.0393 32.2731C32.0771 32.2731 31.2254 32.0715 30.4842 31.6684C29.756 31.2523 29.1839 30.6737 28.7678 29.9325C28.3647 29.1783 28.1631 28.2941 28.1631 27.2798V27.0458C28.1631 26.0315 28.3647 25.1538 28.7678 24.4126C29.1709 23.6585 29.7365 23.0798 30.4647 22.6767C31.1929 22.2606 32.0381 22.0526 33.0003 22.0526C33.9495 22.0526 34.7752 22.2671 35.4774 22.6962C36.1796 23.1123 36.7257 23.6975 37.1158 24.4517C37.5059 25.1928 37.701 26.0575 37.701 27.0458V27.8845H30.6597C30.6857 28.5477 30.9328 29.0873 31.4009 29.5034C31.869 29.9195 32.4412 30.1275 33.1173 30.1275C33.8065 30.1275 34.3136 29.978 34.6387 29.6789C34.9638 29.3799 35.2108 29.0483 35.3799 28.6842L37.3889 29.7374C37.2068 30.0755 36.9403 30.4461 36.5892 30.8492C36.2511 31.2393 35.796 31.5774 35.2238 31.8635C34.6517 32.1365 33.9235 32.2731 33.0393 32.2731ZM30.6792 26.051H35.2043C35.1523 25.4919 34.9248 25.0433 34.5217 24.7052C34.1316 24.3671 33.618 24.1981 32.9808 24.1981C32.3176 24.1981 31.791 24.3671 31.4009 24.7052C31.0108 25.0433 30.7703 25.4919 30.6792 26.051ZM46.6742 35.901V33.7554H51.9405C52.3046 33.7554 52.4866 33.5604 52.4866 33.1703V30.7322H52.1355C52.0315 30.9532 51.869 31.1743 51.6479 31.3954C51.4269 31.6164 51.1278 31.7985 50.7507 31.9415C50.3736 32.0845 49.8925 32.156 49.3074 32.156C48.5532 32.156 47.89 31.987 47.3179 31.6489C46.7587 31.2978 46.3231 30.8167 46.011 30.2056C45.699 29.5944 45.5429 28.8922 45.5429 28.099V22.3256H48.0005V27.904C48.0005 28.6322 48.1761 29.1783 48.5272 29.5424C48.8913 29.9065 49.4049 30.0885 50.068 30.0885C50.8222 30.0885 51.4074 29.8415 51.8235 29.3474C52.2396 28.8402 52.4476 28.1381 52.4476 27.2408V22.3256H54.9052V33.7164C54.9052 34.3796 54.7102 34.9062 54.3201 35.2963C53.93 35.6994 53.4099 35.901 52.7597 35.901H46.6742ZM62.4382 32.2731C61.4759 32.2731 60.6242 32.0715 59.8831 31.6684C59.1549 31.2523 58.5827 30.6737 58.1666 29.9325C57.7635 29.1783 57.562 28.2941 57.562 27.2798V27.0458C57.562 26.0315 57.7635 25.1538 58.1666 24.4126C58.5697 23.6585 59.1354 23.0798 59.8635 22.6767C60.5917 22.2606 61.4369 22.0526 62.3992 22.0526C63.3484 22.0526 64.1741 22.2671 64.8763 22.6962C65.5784 23.1123 66.1246 23.6975 66.5147 24.4517C66.9048 25.1928 67.0998 26.0575 67.0998 27.0458V27.8845H60.0586C60.0846 28.5477 60.3317 29.0873 60.7998 29.5034C61.2679 29.9195 61.84 30.1275 62.5162 30.1275C63.2054 30.1275 63.7125 29.978 64.0376 29.6789C64.3626 29.3799 64.6097 29.0483 64.7787 28.6842L66.7877 29.7374C66.6057 30.0755 66.3391 30.4461 65.988 30.8492C65.65 31.2393 65.1948 31.5774 64.6227 31.8635C64.0506 32.1365 63.3224 32.2731 62.4382 32.2731ZM60.0781 26.051H64.6032C64.5512 25.4919 64.3236 25.0433 63.9205 24.7052C63.5304 24.3671 63.0168 24.1981 62.3797 24.1981C61.7165 24.1981 61.1899 24.3671 60.7998 24.7052C60.4097 25.0433 60.1691 25.4919 60.0781 26.051ZM69.6773 32V18.3467H72.1349V32H69.6773ZM75.2484 32V18.3467H77.706V32H75.2484ZM85.4226 32.2731C84.4603 32.2731 83.5956 32.078 82.8284 31.6879C82.0612 31.2978 81.4566 30.7322 81.0145 29.991C80.5724 29.2498 80.3513 28.3591 80.3513 27.3189V27.0068C80.3513 25.9665 80.5724 25.0758 81.0145 24.3346C81.4566 23.5934 82.0612 23.0278 82.8284 22.6377C83.5956 22.2476 84.4603 22.0526 85.4226 22.0526C86.3848 22.0526 87.2495 22.2476 88.0167 22.6377C88.7839 23.0278 89.3885 23.5934 89.8306 24.3346C90.2727 25.0758 90.4938 25.9665 90.4938 27.0068V27.3189C90.4938 28.3591 90.2727 29.2498 89.8306 29.991C89.3885 30.7322 88.7839 31.2978 88.0167 31.6879C87.2495 32.078 86.3848 32.2731 85.4226 32.2731ZM85.4226 30.0885C86.1767 30.0885 86.8009 29.848 87.295 29.3669C87.7891 28.8727 88.0362 28.1706 88.0362 27.2603V27.0653C88.0362 26.1551 87.7891 25.4594 87.295 24.9783C86.8139 24.4842 86.1897 24.2371 85.4226 24.2371C84.6684 24.2371 84.0442 24.4842 83.5501 24.9783C83.056 25.4594 82.8089 26.1551 82.8089 27.0653V27.2603C82.8089 28.1706 83.056 28.8727 83.5501 29.3669C84.0442 29.848 84.6684 30.0885 85.4226 30.0885ZM93.8945 32L92.5291 22.3256H94.9672L95.8255 30.3421H96.1765L97.4248 22.3256H101.365L102.613 30.3421H102.964L103.822 22.3256H106.26L104.895 32H100.819L99.5704 23.9835H99.2193L97.971 32H93.8945ZM5.96472 52V44.3541H3.50712V42.3256H5.96472V40.5312C5.96472 39.868 6.15977 39.3414 6.54987 38.9513C6.95297 38.5482 7.47309 38.3467 8.11025 38.3467H10.6459V40.3752H8.96846C8.60437 40.3752 8.42232 40.5702 8.42232 40.9603V42.3256H10.9579V44.3541H8.42232V52H5.96472ZM13.2507 52V42.3256H15.6693V43.4179H16.0203C16.1634 43.0278 16.3974 42.7417 16.7225 42.5597C17.0606 42.3776 17.4507 42.2866 17.8928 42.2866H19.0631V44.4712H17.8538C17.2296 44.4712 16.716 44.6402 16.3129 44.9783C15.9098 45.3034 15.7083 45.8105 15.7083 46.4997V52H13.2507ZM25.6344 52.2731C24.6721 52.2731 23.8074 52.078 23.0402 51.6879C22.273 51.2978 21.6684 50.7322 21.2263 49.991C20.7842 49.2498 20.5631 48.3591 20.5631 47.3189V47.0068C20.5631 45.9665 20.7842 45.0758 21.2263 44.3346C21.6684 43.5934 22.273 43.0278 23.0402 42.6377C23.8074 42.2476 24.6721 42.0526 25.6344 42.0526C26.5966 42.0526 27.4613 42.2476 28.2285 42.6377C28.9957 43.0278 29.6003 43.5934 30.0424 44.3346C30.4845 45.0758 30.7056 45.9665 30.7056 47.0068V47.3189C30.7056 48.3591 30.4845 49.2498 30.0424 49.991C29.6003 50.7322 28.9957 51.2978 28.2285 51.6879C27.4613 52.078 26.5966 52.2731 25.6344 52.2731ZM25.6344 50.0885C26.3885 50.0885 27.0127 49.848 27.5068 49.3669C28.0009 48.8727 28.248 48.1706 28.248 47.2603V47.0653C28.248 46.1551 28.0009 45.4594 27.5068 44.9783C27.0257 44.4842 26.4015 44.2371 25.6344 44.2371C24.8802 44.2371 24.256 44.4842 23.7619 44.9783C23.2678 45.4594 23.0207 46.1551 23.0207 47.0653V47.2603C23.0207 48.1706 23.2678 48.8727 23.7619 49.3669C24.256 49.848 24.8802 50.0885 25.6344 50.0885ZM33.3642 52V42.3256H35.7828V43.3789H36.1339C36.3029 43.0538 36.5825 42.7742 36.9726 42.5402C37.3627 42.2931 37.8763 42.1696 38.5135 42.1696C39.2026 42.1696 39.7553 42.3061 40.1714 42.5792C40.5875 42.8393 40.906 43.1838 41.1271 43.613H41.4782C41.6992 43.1969 42.0113 42.8523 42.4144 42.5792C42.8175 42.3061 43.3896 42.1696 44.1308 42.1696C44.729 42.1696 45.2686 42.2996 45.7497 42.5597C46.2438 42.8068 46.6339 43.1903 46.92 43.7105C47.2191 44.2176 47.3686 44.8613 47.3686 45.6414V52H44.911V45.817C44.911 45.2839 44.7745 44.8873 44.5014 44.6272C44.2283 44.3541 43.8448 44.2176 43.3506 44.2176C42.7915 44.2176 42.3559 44.3996 42.0438 44.7637C41.7447 45.1148 41.5952 45.6219 41.5952 46.2851V52H39.1376V45.817C39.1376 45.2839 39.0011 44.8873 38.728 44.6272C38.4549 44.3541 38.0713 44.2176 37.5772 44.2176C37.0181 44.2176 36.5825 44.3996 36.2704 44.7637C35.9713 45.1148 35.8218 45.6219 35.8218 46.2851V52H33.3642ZM59.4503 52C58.8131 52 58.293 51.805 57.8899 51.4149C57.4998 51.0118 57.3048 50.4786 57.3048 49.8155V44.3541H54.8862V42.3256H57.3048V39.3219H59.7624V42.3256H62.415V44.3541H59.7624V49.3864C59.7624 49.7765 59.9444 49.9715 60.3085 49.9715H62.181V52H59.4503ZM65.0297 52V38.3467H67.4873V43.5154H67.8384C67.9424 43.3074 68.105 43.0993 68.326 42.8913C68.5471 42.6832 68.8396 42.5142 69.2037 42.3842C69.5808 42.2411 70.0554 42.1696 70.6276 42.1696C71.3818 42.1696 72.0384 42.3451 72.5976 42.6962C73.1697 43.0343 73.6118 43.5089 73.9239 44.1201C74.236 44.7182 74.392 45.4204 74.392 46.2266V52H71.9344V46.4216C71.9344 45.6935 71.7524 45.1473 71.3883 44.7832C71.0372 44.4191 70.5301 44.2371 69.8669 44.2371C69.1127 44.2371 68.5276 44.4907 68.1115 44.9978C67.6954 45.4919 67.4873 46.1876 67.4873 47.0848V52H65.0297ZM81.8469 52.2731C80.8847 52.2731 80.033 52.0715 79.2918 51.6684C78.5636 51.2523 77.9915 50.6737 77.5754 49.9325C77.1723 49.1783 76.9707 48.2941 76.9707 47.2798V47.0458C76.9707 46.0315 77.1723 45.1538 77.5754 44.4126C77.9785 43.6585 78.5441 43.0798 79.2723 42.6767C80.0005 42.2606 80.8457 42.0526 81.8079 42.0526C82.7572 42.0526 83.5829 42.2671 84.285 42.6962C84.9872 43.1123 85.5333 43.6975 85.9234 44.4517C86.3135 45.1928 86.5086 46.0575 86.5086 47.0458V47.8845H79.4674C79.4934 48.5477 79.7404 49.0873 80.2085 49.5034C80.6766 49.9195 81.2488 50.1275 81.925 50.1275C82.6141 50.1275 83.1212 49.978 83.4463 49.6789C83.7714 49.3799 84.0185 49.0483 84.1875 48.6842L86.1965 49.7374C86.0145 50.0755 85.7479 50.4461 85.3968 50.8492C85.0587 51.2393 84.6036 51.5774 84.0315 51.8635C83.4593 52.1365 82.7312 52.2731 81.8469 52.2731ZM79.4869 46.051H84.012C83.96 45.4919 83.7324 45.0433 83.3293 44.7052C82.9392 44.3671 82.4256 44.1981 81.7884 44.1981C81.1253 44.1981 80.5986 44.3671 80.2085 44.7052C79.8184 45.0433 79.5779 45.4919 79.4869 46.051ZM98.8366 52.2731C97.8744 52.2731 97.0227 52.0715 96.2815 51.6684C95.5533 51.2523 94.9812 50.6737 94.5651 49.9325C94.162 49.1783 93.9605 48.2941 93.9605 47.2798V47.0458C93.9605 46.0315 94.162 45.1538 94.5651 44.4126C94.9682 43.6585 95.5338 43.0798 96.262 42.6767C96.9902 42.2606 97.8354 42.0526 98.7976 42.0526C99.7469 42.0526 100.573 42.2671 101.275 42.6962C101.977 43.1123 102.523 43.6975 102.913 44.4517C103.303 45.1928 103.498 46.0575 103.498 47.0458V47.8845H96.4571C96.4831 48.5477 96.7301 49.0873 97.1982 49.5034C97.6664 49.9195 98.2385 50.1275 98.9147 50.1275C99.6038 50.1275 100.111 49.978 100.436 49.6789C100.761 49.3799 101.008 49.0483 101.177 48.6842L103.186 49.7374C103.004 50.0755 102.738 50.4461 102.387 50.8492C102.048 51.2393 101.593 51.5774 101.021 51.8635C100.449 52.1365 99.7209 52.2731 98.8366 52.2731ZM96.4766 46.051H101.002C100.95 45.4919 100.722 45.0433 100.319 44.7052C99.9289 44.3671 99.4153 44.1981 98.7781 44.1981C98.115 44.1981 97.5883 44.3671 97.1982 44.7052C96.8082 45.0433 96.5676 45.4919 96.4766 46.051ZM105.608 47.2018V46.8898C105.608 45.8755 105.809 45.0108 106.212 44.2956C106.615 43.5674 107.149 43.0148 107.812 42.6377C108.488 42.2476 109.223 42.0526 110.016 42.0526C110.9 42.0526 111.57 42.2086 112.025 42.5207C112.48 42.8328 112.811 43.1578 113.02 43.4959H113.371V42.3256H115.789V53.7164C115.789 54.3796 115.594 54.9062 115.204 55.2963C114.814 55.6994 114.294 55.901 113.644 55.901H107.168V53.7554H112.785C113.15 53.7554 113.332 53.5604 113.332 53.1703V50.6542H112.98C112.85 50.8622 112.668 51.0768 112.434 51.2978C112.2 51.5059 111.888 51.6814 111.498 51.8245C111.108 51.9675 110.614 52.039 110.016 52.039C109.223 52.039 108.488 51.8505 107.812 51.4734C107.149 51.0833 106.615 50.5306 106.212 49.8155C105.809 49.0873 105.608 48.2161 105.608 47.2018ZM110.718 49.8935C111.472 49.8935 112.103 49.6529 112.61 49.1718C113.117 48.6907 113.371 48.0145 113.371 47.1433V46.9483C113.371 46.0641 113.117 45.3879 112.61 44.9198C112.116 44.4387 111.485 44.1981 110.718 44.1981C109.964 44.1981 109.333 44.4387 108.826 44.9198C108.319 45.3879 108.065 46.0641 108.065 46.9483V47.1433C108.065 48.0145 108.319 48.6907 108.826 49.1718C109.333 49.6529 109.964 49.8935 110.718 49.8935ZM118.436 47.2018V46.8898C118.436 45.8755 118.637 45.0108 119.041 44.2956C119.444 43.5674 119.977 43.0148 120.64 42.6377C121.316 42.2476 122.051 42.0526 122.844 42.0526C123.728 42.0526 124.398 42.2086 124.853 42.5207C125.308 42.8328 125.64 43.1578 125.848 43.4959H126.199V42.3256H128.617V53.7164C128.617 54.3796 128.422 54.9062 128.032 55.2963C127.642 55.6994 127.122 55.901 126.472 55.901H119.996V53.7554H125.614C125.978 53.7554 126.16 53.5604 126.16 53.1703V50.6542H125.809C125.679 50.8622 125.497 51.0768 125.263 51.2978C125.029 51.5059 124.716 51.6814 124.326 51.8245C123.936 51.9675 123.442 52.039 122.844 52.039C122.051 52.039 121.316 51.8505 120.64 51.4734C119.977 51.0833 119.444 50.5306 119.041 49.8155C118.637 49.0873 118.436 48.2161 118.436 47.2018ZM123.546 49.8935C124.3 49.8935 124.931 49.6529 125.438 49.1718C125.945 48.6907 126.199 48.0145 126.199 47.1433V46.9483C126.199 46.0641 125.945 45.3879 125.438 44.9198C124.944 44.4387 124.313 44.1981 123.546 44.1981C122.792 44.1981 122.161 44.4387 121.654 44.9198C121.147 45.3879 120.893 46.0641 120.893 46.9483V47.1433C120.893 48.0145 121.147 48.6907 121.654 49.1718C122.161 49.6529 122.792 49.8935 123.546 49.8935Z" fill="#252525"/>
</svg>
