<svg width="87" height="32" viewBox="0 0 87 32" fill="none" xmlns="http://www.w3.org/2000/svg">
         <path d="M8.32 24.8889C7.15852 24.8889 6.21037 24.5333 5.47555 23.8222C4.76444 23.0874 4.40889 22.1156 4.40889 20.9067V10.9511H0V7.25334H4.40889V1.77778H8.88889V7.25334H13.7244V10.9511H8.88889V20.1244C8.88889 20.8356 9.22074 21.1911 9.88444 21.1911H13.2978V24.8889H8.32Z" fill="black"/>
         <path d="M19.6997 32V28.0889H29.2997C29.9634 28.0889 30.2953 27.7333 30.2953 27.0222V22.5778H29.6553C29.4656 22.9807 29.1693 23.3837 28.7664 23.7867C28.3634 24.1896 27.8182 24.5215 27.1308 24.7822C26.4434 25.043 25.5664 25.1733 24.4997 25.1733C23.1249 25.1733 21.916 24.8652 20.8731 24.2489C19.8538 23.6089 19.0597 22.7319 18.4908 21.6178C17.9219 20.5037 17.6375 19.2237 17.6375 17.7778V7.25334H22.1175V17.4222C22.1175 18.7496 22.4375 19.7452 23.0775 20.4089C23.7412 21.0726 24.6775 21.4044 25.8864 21.4044C27.2612 21.4044 28.3279 20.9541 29.0864 20.0533C29.8449 19.1289 30.2242 17.8489 30.2242 16.2133V7.25334H34.7042V28.0178C34.7042 29.2267 34.3486 30.1867 33.6375 30.8978C32.9264 31.6326 31.9782 32 30.7931 32H19.6997Z" fill="black"/>
         <path d="M42.605 24.8889V10.9511H38.125V7.25334H42.605V3.98223C42.605 2.77334 42.9606 1.81333 43.6717 1.10222C44.4065 0.367409 45.3546 0 46.5161 0H51.1383V3.69778H48.0805C47.4168 3.69778 47.085 4.05334 47.085 4.76445V7.25334H51.7072V10.9511H47.085V24.8889H42.605Z" fill="black"/>
         <path d="M61.5839 24.8889C60.4224 24.8889 59.4742 24.5333 58.7394 23.8222C58.0283 23.0874 57.6728 22.1156 57.6728 20.9067V10.9511H53.2639V7.25334H57.6728V1.77778H62.1528V7.25334H66.9883V10.9511H62.1528V20.1244C62.1528 20.8356 62.4846 21.1911 63.1483 21.1911H66.5617V24.8889H61.5839Z" fill="black"/>
         <path d="M78.4542 25.3867C76.7001 25.3867 75.1475 25.0193 73.7964 24.2844C72.469 23.5259 71.426 22.4711 70.6675 21.12C69.9327 19.7452 69.5653 18.1333 69.5653 16.2844V15.8578C69.5653 14.0089 69.9327 12.4089 70.6675 11.0578C71.4023 9.68296 72.4334 8.62815 73.7608 7.89333C75.0882 7.13481 76.629 6.75556 78.383 6.75556C80.1134 6.75556 81.6186 7.14667 82.8986 7.92889C84.1786 8.68741 85.1741 9.75407 85.8853 11.1289C86.5964 12.48 86.9519 14.0563 86.9519 15.8578V17.3867H74.1164C74.1638 18.5956 74.6142 19.5793 75.4675 20.3378C76.3208 21.0963 77.3638 21.4756 78.5964 21.4756C79.8527 21.4756 80.7771 21.203 81.3697 20.6578C81.9623 20.1126 82.4127 19.5081 82.7208 18.8444L86.383 20.7644C86.0512 21.3807 85.5653 22.0563 84.9253 22.7911C84.309 23.5022 83.4793 24.1185 82.4364 24.64C81.3934 25.1378 80.066 25.3867 78.4542 25.3867ZM74.1519 14.0444H82.4008C82.306 13.0252 81.8912 12.2074 81.1564 11.5911C80.4453 10.9748 79.509 10.6667 78.3475 10.6667C77.1386 10.6667 76.1786 10.9748 75.4675 11.5911C74.7564 12.2074 74.3179 13.0252 74.1519 14.0444Z" fill="black"/>
</svg>